<svg width="32" height="32" viewBox="0 0 32 32" fill="none" xmlns="http://www.w3.org/2000/svg">
  <rect width="32" height="32" rx="4" fill="#000000"/>
  <!-- T letter -->
  <path d="M8 10H18V12.5H14.5V22H11.5V12.5H8V10Z" fill="white"/>
  <!-- J letter -->
  <path d="M21 10H24V18.5C24 19.5 23.7 20.3 23.1 20.9C22.5 21.5 21.7 21.8 20.7 21.8C19.7 21.8 18.9 21.5 18.3 20.9C17.7 20.3 17.4 19.5 17.4 18.5H20.4C20.4 18.8 20.5 19 20.6 19.1C20.7 19.2 20.9 19.3 21 19.3C21.1 19.3 21.3 19.2 21.4 19.1C21.5 19 21.6 18.8 21.6 18.5V10H21Z" fill="white"/>
</svg>